<svg xmlns="http://www.w3.org/2000/svg" width="70" height="70" viewBox="333.488 148.95 70 70"><g data-name="Group 60"><path d="M333.488 183.9a35 35 0 1 1 0 .1z" fill="#ff5a5a" fill-rule="evenodd" data-name="Ellipse 1"/><g data-name="Group 55"><g data-name="Ellipse 20"><path d="M350.488 178.4a5 5.5 0 1 1 0 .1z" fill="#a70408" fill-rule="evenodd"/><path d="M0 5.4a5 5.5 0 1 1 0 .1z" stroke-linejoin="round" stroke-linecap="round" stroke="#a70408" fill="transparent" transform="matrix(.9 0 0 .9091 350.988 173.495)"/></g><g data-name="Ellipse 21"><path d="M377.488 178.4a4.5 5.5 0 1 1 0 .1z" fill="#a70408" fill-rule="evenodd"/><path d="M0 5.4a4.5 5.5 0 1 1 0 .1z" stroke-linejoin="round" stroke-linecap="round" stroke="#a70408" fill="transparent" transform="matrix(.88889 0 0 .9091 377.988 173.495)"/></g><path d="M385.99 203.227s-7.787-9.163-16.17-9.163c-8.383 0-17.363 9.163-17.363 9.163" stroke-linejoin="round" stroke-linecap="round" stroke-width="5" stroke="#a70408" fill="transparent" data-name="Path 24"/></g></g></svg>