<svg xmlns="http://www.w3.org/2000/svg" width="243.944" height="240.083" viewBox="192.877 1272.888 243.944 240.083"><g data-name="Group 71" transform="translate(191.71 1266.617)" clip-path="url(&quot;#a&quot;)"><path d="m224.699 97.19-73.51-.656c-8.45-.076-15.377 6.729-15.47 15.199l-.57 51.38c-.092 8.47 6.682 15.396 15.133 15.472l73.509.657c8.45.075 15.378-6.73 15.472-15.199l.568-51.38c.093-8.47-6.682-15.397-15.132-15.472Z" fill="#4bd657" fill-rule="evenodd" data-name="Path 26"/><path d="m223.786 179.688-73.506-.656a15.708 15.708 0 0 1-11.09-4.721 15.78 15.78 0 0 1-4.498-11.202l.568-51.38a15.85 15.85 0 0 1 4.741-11.13 15.776 15.776 0 0 1 11.197-4.527l73.505.657a15.711 15.711 0 0 1 11.095 4.726 15.78 15.78 0 0 1 4.494 11.212l-.568 51.38a15.848 15.848 0 0 1-4.747 11.12 15.777 15.777 0 0 1-11.19 4.521Zm-72.598-82.707a14.887 14.887 0 0 0-10.564 4.271 14.95 14.95 0 0 0-4.471 10.5l-.57 51.38a14.894 14.894 0 0 0 4.245 10.568 14.823 14.823 0 0 0 10.462 4.453l73.505.656c3.942.036 7.739-1.499 10.559-4.266a14.953 14.953 0 0 0 4.477-10.489l.568-51.396a14.887 14.887 0 0 0-4.24-10.576 14.821 14.821 0 0 0-10.466-4.46l-73.505-.64Z" fill-rule="evenodd" data-name="Path 27"/><path d="M209.587 116.713s-5.62 3.698-8.424 9.098c-3.646 7.017 1.574 15.362 9.463 15.066l6.94.062c6.403.057 11.124-6.098 9.305-12.25-1.018-3.435-3.79-6.773-8.28-11.315 0 0 3.82-3.422 4.013-7.729 0 0-3.683-2.27-6.37-.62-2.689 1.65-9.714-2.905-10.687-1.493-.014.003 6.106 5.414 4.04 9.18Z" fill="#fff" fill-rule="evenodd" data-name="Path 28"/><path d="M206.273 107.258c1.728.016 5.693 2.11 8.357 2.134a2.987 2.987 0 0 0 1.594-.364 4.292 4.292 0 0 1 2.32-.602c2.1.019 4.051 1.228 4.051 1.228-.194 4.306-4.013 7.729-4.013 7.729 4.49 4.542 7.262 7.88 8.28 11.316 1.817 6.148-2.9 12.307-9.305 12.25l-6.941-.063-.502-.004c-7.601-.068-12.538-8.208-8.961-15.074 2.813-5.4 8.425-9.099 8.425-9.099 2.073-3.765-4.06-9.177-4.06-9.177a.838.838 0 0 1 .74-.277l.015.003Zm-.005-.896c-.841-.008-1.271.355-1.494.66a.89.89 0 0 0 .142 1.193c1.52 1.342 5.107 5.323 3.953 7.898-1.067.738-5.917 4.273-8.535 9.294a11.249 11.249 0 0 0-1.272 5.507 11.21 11.21 0 0 0 1.568 5.423 11.155 11.155 0 0 0 9.447 5.45l.52.005 6.924.062a10.413 10.413 0 0 0 8.493-4.2 10.297 10.297 0 0 0 1.674-9.198c-1.034-3.498-3.789-6.863-7.875-11.059 1.17-1.257 3.488-4.17 3.652-7.694a.888.888 0 0 0-.422-.799c-.088-.054-2.19-1.334-4.509-1.354a5.177 5.177 0 0 0-2.794.732c-.346.178-.733.26-1.12.234-1.333-.012-3.145-.624-4.745-1.193-1.448-.501-2.698-.932-3.614-.94l.007-.021Z" fill-rule="evenodd" data-name="Path 29"/><path d="M214.508 117.934a.46.46 0 0 1-.199-.049.454.454 0 0 1-.236-.322.443.443 0 0 1 .014-.205c.711-2.376-2.029-4.942-2.062-4.965a.445.445 0 0 1-.009-.615.442.442 0 0 1 .611-.044c.13.12 3.182 2.99 2.315 5.879a.449.449 0 0 1-.434.321Z" fill="#1d1d1b" fill-rule="evenodd" data-name="Path 30"/><path d="M216.21 118.005a.44.44 0 0 1-.296-.128.448.448 0 0 1 .007-.63c1.343-1.373 1.039-4.55 1.035-4.583a.446.446 0 0 1 .1-.329.437.437 0 0 1 .302-.163.425.425 0 0 1 .175.017.45.45 0 0 1 .316.385c.013.146.35 3.624-1.284 5.298a.446.446 0 0 1-.355.133Z" fill="#1d1d1b" fill-rule="evenodd" data-name="Path 31"/><path d="M217.588 125.577a2.976 2.976 0 0 0-2.075.916 2.994 2.994 0 0 0-.83 2.116l-.002.1a2.977 2.977 0 0 0-.93-2.04 2.963 2.963 0 0 0-2.087-.809c-1.636.033-3.073 1.4-2.907 3.032.309 3.01 4.042 5.646 5.489 6.563a.941.941 0 0 0 1.095-.062c1.432-1.15 5.314-4.487 5.267-6.907a2.964 2.964 0 0 0-3.02-2.91Z" fill="#07acee" fill-rule="evenodd" data-name="Path 32"/><path d="M214.734 136.049a1.365 1.365 0 0 1-.724-.216c-1.606-1.013-5.372-3.717-5.696-6.906a3.037 3.037 0 0 1 .772-2.335 3.544 3.544 0 0 1 2.572-1.19c-.044.444.077.888.34 1.248a1.813 1.813 0 0 0 2.36.513c.388-.218.684-.572.83-.994a3.412 3.412 0 0 1 2.39-1.052 3.4 3.4 0 0 1 2.428.952 3.416 3.416 0 0 1 1.046 2.394c.048 2.584-3.783 5.928-5.434 7.266-.25.205-.562.318-.884.32Zm-2.986-9.744-.074-.001a2.679 2.679 0 0 0-1.92.878 2.165 2.165 0 0 0-.553 1.652c.293 2.867 4.122 5.495 5.285 6.232a.5.5 0 0 0 .577-.033c1.2-.97 5.143-4.3 5.098-6.551a2.515 2.515 0 0 0-2.563-2.47 2.53 2.53 0 0 0-2.47 2.577v.1l-.893.026a2.53 2.53 0 0 0-2.487-2.41Z" fill="#1d1d1b" fill-rule="evenodd" data-name="Path 33"/><path d="M216.084 118.431c-3.239-.03-7.162-1.37-7.381-1.443a.448.448 0 0 1-.05-.827.445.445 0 0 1 .34-.022c.07.026 6.823 2.322 9.537.986a.448.448 0 1 1 .39.807 6.507 6.507 0 0 1-2.836.5Z" fill-rule="evenodd" data-name="Path 34"/><path d="M208.823 150.555a.445.445 0 0 1-.442-.456.445.445 0 0 1 .45-.446l20.974-.19a.428.428 0 0 1 .317.127.459.459 0 0 1 .133.319c0 .12-.046.235-.13.32a.446.446 0 0 1-.313.136l-20.971.186-.018.004Z" fill-rule="evenodd" data-name="Path 35"/><path d="m229.67 162.94-17.098-.16a.445.445 0 0 1-.442-.456.451.451 0 0 1 .45-.448l17.1.16c.118.001.231.05.314.136a.457.457 0 0 1-.008.639.442.442 0 0 1-.316.13Z" fill-rule="evenodd" data-name="Path 36"/><path d="M244.258 154.711a.433.433 0 0 1-.307-.134.45.45 0 0 1-.124-.317l.412-39.36a.45.45 0 0 1 .13-.314.43.43 0 0 1 .617.006c.08.085.126.199.125.317l-.412 39.36a.45.45 0 0 1-.132.314.43.43 0 0 1-.309.128Z" fill-rule="evenodd" data-name="Path 37"/><path d="m223.832 100.923-35.81-.335a.739.739 0 0 1-.523-.226.758.758 0 0 1 .539-1.284l35.81.336a.74.74 0 0 1 .524.226.757.757 0 0 1 .211.535.758.758 0 0 1-.222.532.743.743 0 0 1-.53.216Z" fill="#fff" fill-rule="evenodd" data-name="Path 38"/><path d="M59.282 140.572 44.288 97.516a17.97 17.97 0 0 1-.952-7.209 18.024 18.024 0 0 1 1.982-7.004 17.978 17.978 0 0 1 10.171-8.742l47.26-16.035a2.778 2.778 0 0 1 3.01.816c.24.28.423.606.536.958l28.918 89.11a2.793 2.793 0 0 1-.525 2.672 2.799 2.799 0 0 1-1.148.811c-.445.168-.925.22-1.395.148l-70.642-10.644a2.763 2.763 0 0 1-1.365-.602 2.787 2.787 0 0 1-.856-1.223Z" fill="#fff" fill-rule="evenodd" data-name="Path 39"/><path d="M103.666 58.387a2.77 2.77 0 0 1 2.614 1.922l28.918 89.109a2.804 2.804 0 0 1-2.667 3.664 2.706 2.706 0 0 1-.4-.033l-70.643-10.646a2.764 2.764 0 0 1-2.206-1.831L44.288 97.516a17.973 17.973 0 0 1-.967-6.984 18.022 18.022 0 0 1 6.07-12.439 17.947 17.947 0 0 1 6.098-3.532l47.26-16.036c.295-.1.605-.149.917-.147v.01Zm.01-.903c-.41-.004-.82.062-1.21.195L55.209 73.715c-2.357.8-4.534 2.06-6.404 3.707a18.908 18.908 0 0 0-5.358 20.391l14.995 43.055a3.66 3.66 0 0 0 2.912 2.41l70.642 10.66a3.672 3.672 0 0 0 2.201-.354c.52-.265.971-.648 1.314-1.12.35-.47.58-1.018.671-1.597a3.633 3.633 0 0 0-.14-1.725l-28.913-89.11a3.658 3.658 0 0 0-3.455-2.537l.003-.01Z" fill-rule="evenodd" data-name="Path 40"/><path d="m46.909 87.048 43.605 49.86-8.91 3.21-37.812-39.62 3.117-13.45Z" fill="#ebebeb" fill-rule="evenodd" data-name="Path 41"/><path d="M43.984 83.012a18.02 18.02 0 0 0-1.977 6.999 17.972 17.972 0 0 0 .952 7.204l2.06 5.922c1.214-5.247 9.824-6.597 9.824-6.597-8.04-10.397-4.352-18.602-2.496-21.54a17.974 17.974 0 0 0-8.363 8.012Z" fill="#07acee" fill-rule="evenodd" data-name="Path 42"/><path d="M50.202 77.257c-1.61 4.016-2.547 10.702 3.098 18.695-2.154.538-6.2 1.889-8.173 4.782l-1.328-3.815a17.086 17.086 0 0 1-.107-10.909 17.088 17.088 0 0 1 6.51-8.753Zm2.145-2.258a17.963 17.963 0 0 0-8.967 9.299 17.988 17.988 0 0 0-.421 12.917l2.06 5.922c1.214-5.247 9.824-6.597 9.824-6.597-8.04-10.397-4.352-18.602-2.496-21.54Z" fill-rule="evenodd" data-name="Path 43"/><path d="m41.983 197.788-30.809-33.516a17.894 17.894 0 0 1-3.726-6.232 17.983 17.983 0 0 1-.949-7.21 18.023 18.023 0 0 1 5.897-12.064l37.109-33.502a2.796 2.796 0 0 1 2.023-.714 2.773 2.773 0 0 1 1.926.936l61.826 70.229a2.791 2.791 0 0 1 .573 2.658 2.797 2.797 0 0 1-1.958 1.89l-69.159 18.33a2.775 2.775 0 0 1-2.753-.805Z" fill="#fff" fill-rule="evenodd" data-name="Path 44"/><path d="M51.395 104.542a2.766 2.766 0 0 1 2.07.939l61.826 70.227a2.786 2.786 0 0 1 .574 2.66 2.804 2.804 0 0 1-1.958 1.89l-69.159 18.33a2.776 2.776 0 0 1-2.753-.803l-30.82-33.512a17.896 17.896 0 0 1-3.653-6.02 17.968 17.968 0 0 1-1.05-6.974 18.021 18.021 0 0 1 5.925-12.513l37.108-33.501a2.78 2.78 0 0 1 1.89-.718v-.005Zm.01-.889a3.673 3.673 0 0 0-2.496.948l-37.108 33.5a18.913 18.913 0 0 0-5.115 20.46 18.775 18.775 0 0 0 3.833 6.32l30.809 33.516a3.672 3.672 0 0 0 3.636 1.063l69.155-18.33a3.69 3.69 0 0 0 2.587-2.497 3.692 3.692 0 0 0-.758-3.513l-61.824-70.227a3.675 3.675 0 0 0-2.719-1.24Z" fill-rule="evenodd" data-name="Path 45"/><path d="M5.196 151.014a17.975 17.975 0 0 0 .948 7.204 17.88 17.88 0 0 0 3.72 6.228l4.234 4.61c-.958-5.296 6.426-9.96 6.426-9.96-11.507-6.332-11.35-15.326-10.803-18.759a18.023 18.023 0 0 0-4.525 10.677Z" fill="#07acee" fill-rule="evenodd" data-name="Path 46"/><path d="M8.627 143.262c.108 4.321 1.884 10.825 10.236 15.91-1.767 1.35-4.952 4.198-5.627 7.639l-2.73-2.973a17.002 17.002 0 0 1-4.406-9.957 17.103 17.103 0 0 1 2.527-10.616v-.003Zm1.082-2.922a18.004 18.004 0 0 0-4.573 12.096 17.908 17.908 0 0 0 4.716 12.013l4.234 4.61c-.957-5.297 6.426-9.961 6.426-9.961-11.506-6.332-11.35-15.324-10.803-18.758Z" fill-rule="evenodd" data-name="Path 47"/><path d="m30.448 154.036-5.446 4.625a3.227 3.227 0 0 0-.378 4.548l4.612 5.433a3.226 3.226 0 0 0 4.548.364l5.447-4.625a3.229 3.229 0 0 0 .377-4.55l-4.611-5.431a3.226 3.226 0 0 0-4.549-.364Z" fill="#07acee" fill-rule="evenodd" data-name="Path 48"/><path d="m31.698 170.366-.268-.002a3.665 3.665 0 0 1-1.375-.391 3.654 3.654 0 0 1-1.119-.891l-4.605-5.44a3.682 3.682 0 0 1-.853-2.679 3.7 3.7 0 0 1 1.284-2.507l5.437-4.633a3.672 3.672 0 0 1 2.674-.866 3.649 3.649 0 0 1 2.496 1.284l4.614 5.429a3.67 3.67 0 0 1 .858 2.68 3.684 3.684 0 0 1-1.286 2.506l-5.436 4.631a3.638 3.638 0 0 1-2.421.879Zm.9-16.534a2.762 2.762 0 0 0-1.821.664l-5.44 4.63a2.802 2.802 0 0 0-.324 3.926l4.602 5.439a2.769 2.769 0 0 0 1.889.973 2.775 2.775 0 0 0 2.025-.656l5.436-4.633a2.788 2.788 0 0 0 .342-3.924l-4.604-5.441a2.742 2.742 0 0 0-1.889-.97l-.217-.008Z" fill-rule="evenodd" data-name="Path 49"/><path d="M48.73 118.317 20.092 142.64a3.186 3.186 0 0 0-.373 4.49l.002.002a3.183 3.183 0 0 0 4.489.36l28.638-24.323a3.186 3.186 0 0 0 .373-4.49l-.002-.002a3.184 3.184 0 0 0-4.489-.36Z" fill="#07acee" fill-rule="evenodd" data-name="Path 50"/><path d="M22.153 148.863a3.61 3.61 0 0 1-3.377-2.397 3.647 3.647 0 0 1 1.071-4.014l28.624-24.384a3.634 3.634 0 0 1 2.647-.856 3.618 3.618 0 0 1 3.318 3.918 3.659 3.659 0 0 1-1.271 2.483l-28.627 24.385a3.623 3.623 0 0 1-2.385.865Zm28.696-30.76a2.728 2.728 0 0 0-1.79.656L20.43 143.143a2.75 2.75 0 0 0-1.02 1.884 2.753 2.753 0 0 0 .636 2.043 2.73 2.73 0 0 0 2.986.813c.346-.12.666-.31.939-.558l28.624-24.382a2.755 2.755 0 0 0 .812-3.026 2.734 2.734 0 0 0-2.54-1.814h-.019Z" fill-rule="evenodd" data-name="Path 51"/><path d="M42.525 153.103a.44.44 0 0 1-.44-.48.448.448 0 0 1 .158-.306l23.34-19.883a.453.453 0 0 1 .326-.11.45.45 0 0 1 .261.789l-23.343 19.886a.447.447 0 0 1-.302.104Z" fill-rule="evenodd" data-name="Path 52"/><path d="M56.137 169.137a.444.444 0 0 1-.419-.311.447.447 0 0 1 .137-.478L79.2 148.465a.448.448 0 0 1 .742.373.454.454 0 0 1-.155.309l-23.344 19.882a.434.434 0 0 1-.305.108Z" fill-rule="evenodd" data-name="Path 53"/><path d="M96.64 71.118 60.925 82.79a3.187 3.187 0 0 0-2.047 4.013v.002a3.18 3.18 0 0 0 4.017 2.03L98.61 77.164a3.187 3.187 0 0 0 2.046-4.012v-.003a3.18 3.18 0 0 0-4.017-2.03Z" fill="#07acee" fill-rule="evenodd" data-name="Path 54"/><path d="M61.883 89.396a3.618 3.618 0 0 1-2.337-.89 3.64 3.64 0 0 1-1.206-2.199 3.665 3.665 0 0 1 2.464-4.023l35.698-11.737a3.62 3.62 0 0 1 4.577 2.329 3.66 3.66 0 0 1-2.333 4.6l-35.695 11.74a3.677 3.677 0 0 1-1.168.18ZM97.657 71.26a2.698 2.698 0 0 0-.88.139L61.08 83.134a2.762 2.762 0 0 0-1.76 3.472 2.731 2.731 0 0 0 3.455 1.756L98.47 76.626a2.765 2.765 0 0 0 1.906-3.05 2.745 2.745 0 0 0-.927-1.674 2.729 2.729 0 0 0-1.792-.658v.015Z" fill-rule="evenodd" data-name="Path 55"/><path d="M64.186 105.285a.45.45 0 0 1-.422-.302.449.449 0 0 1 .29-.565l42.85-14.101a.446.446 0 0 1 .568.28.452.452 0 0 1-.28.57L64.338 105.27a.46.46 0 0 1-.152.016Z" fill-rule="evenodd" data-name="Path 56"/><path d="M66.766 112.313a.443.443 0 0 1-.435-.38.45.45 0 0 1 .302-.495l42.465-13.975a.446.446 0 0 1 .568.28.451.451 0 0 1-.28.571L66.921 112.29a.462.462 0 0 1-.155.023Z" fill-rule="evenodd" data-name="Path 57"/><path d="M92.155 114.039a.443.443 0 0 1-.435-.38.45.45 0 0 1 .302-.494l21.89-7.202a.442.442 0 0 1 .48.128.448.448 0 0 1 .065.495.459.459 0 0 1-.258.228l-21.886 7.203a.402.402 0 0 1-.158.022Z" fill-rule="evenodd" data-name="Path 58"/><path d="M33.446 164.78a.44.44 0 0 1-.137-.022l-5.17-1.723a.444.444 0 0 1-.257-.556.448.448 0 0 1 .539-.29l4.502 1.497-.842-6.703a.452.452 0 0 1 .563-.488.437.437 0 0 1 .27.209c.029.05.047.107.054.165l.926 7.409a.452.452 0 0 1-.159.4.452.452 0 0 1-.29.102Z" fill-rule="evenodd" data-name="Path 59"/><path d="m41.678 178.81 4.92.462-.523-6.703" fill="#4bd657" fill-rule="evenodd" data-name="Path 60"/><path d="M46.594 179.72h-.036l-4.924-.46a.445.445 0 0 1-.402-.49.45.45 0 0 1 .49-.404l4.392.411-.482-6.173a.452.452 0 0 1 .411-.484.446.446 0 0 1 .481.41l.518 6.704a.453.453 0 0 1-.451.485h.003Z" fill-rule="evenodd" data-name="Path 61"/><path d="M8.268 167.525a.44.44 0 0 1-.296-.122c-7.39-7.048-7.446-14.92-6.19-20.287a29.073 29.073 0 0 1 4.528-10.01.449.449 0 0 1 .624-.087.448.448 0 0 1 .085.627 28.68 28.68 0 0 0-4.375 9.701c-1.74 7.46.26 13.997 5.94 19.41a.444.444 0 0 1-.316.768Z" fill-rule="evenodd" data-name="Path 62"/><path d="M75.473 62.704a.445.445 0 0 1-.375-.686.448.448 0 0 1 .248-.19l21.684-6.91a.446.446 0 0 1 .517.63.448.448 0 0 1-.25.223l-21.684 6.91a.375.375 0 0 1-.14.023Z" fill-rule="evenodd" data-name="Path 63"/><path d="M179.578 204.612s16.867 12.733 29.536 7.85c12.67-4.884-21.583-27.174-29.536-7.85Z" fill="#07acee" fill-rule="evenodd" data-name="Path 64"/><path d="M202.504 214.034c-11.17-.1-22.616-8.63-23.194-9.063l-.278-.208.135-.321c2.491-6.058 7.872-8.838 15.142-7.832 8.37 1.16 17.474 7.288 18.015 12.145.146 1.29-.264 3.05-3.045 4.122a18.265 18.265 0 0 1-6.775 1.157Zm-22.376-9.576c2.243 1.608 17.421 11.984 28.827 7.584 1.792-.694 2.638-1.766 2.478-3.184-.455-4.019-8.668-10.175-17.247-11.36-3.913-.54-10.86-.337-14.058 6.96Z" fill="#1d1d1b" fill-rule="evenodd" data-name="Path 65"/><path d="M118.123 106.526s-1.908 11.066-9.548 7.98c-7.641-3.085-23.901-9.838-29.622 1.44-5.72 11.28-4.73 13.751-13.527 12.7-8.797-1.05-26.215 12.477-8.888 30.333 17.327 17.856 75.831-39.561 75.831-39.561l-.518-6.94-13.728-5.952Z" fill="#382256" fill-rule="evenodd" data-name="Path 66"/><path d="M65.354 162.862h-.044c-3.778-.035-6.829-1.253-9.1-3.578-9.656-9.95-7.908-17.874-6.006-21.713 3.134-6.328 10.426-9.957 15.275-9.37 6.833.823 7.387-.37 10.46-6.994a158.189 158.189 0 0 1 2.62-5.45c5.837-11.505 22.084-4.932 29.893-1.773l.296.118c1.727.699 3.264.677 4.603-.065 3.293-1.844 4.328-7.52 4.338-7.577l.095-.56 14.507 6.285.555 7.413-.148.148a323.534 323.534 0 0 1-24.953 21.625c-18.507 14.338-32.762 21.577-42.39 21.49Zm-.887-33.83c-4.506-.04-10.69 3.33-13.464 8.937-3.101 6.26-1.026 13.608 5.848 20.691 2.091 2.154 4.941 3.266 8.469 3.307h.041c21.875.196 63.712-39.979 66.548-42.714l-.485-6.463-12.976-5.625c-.356 1.559-1.604 5.948-4.669 7.653-1.574.88-3.38.918-5.355.113l-.297-.118c-7.56-3.05-23.298-9.425-28.76 1.346a154.834 154.834 0 0 0-2.606 5.422c-3.075 6.627-3.9 8.41-11.387 7.506-.3-.038-.604-.06-.907-.064v.009Z" fill="#1d1e1b" fill-rule="evenodd" data-name="Path 67"/><path d="M146.085 121.542c71.758 24.261 33.686 57.517 38.853 123.72l-113.87.642s-15.597-75.703 50.66-122.273" fill="#07acee" fill-rule="evenodd" data-name="Path 68"/><path d="m70.707 246.355-.074-.356c-.04-.191-3.866-19.297.485-43.847 2.556-14.42 7.386-27.877 14.362-39.994 8.72-15.147 20.83-28.235 36-38.892l.516.743c-34.087 23.956-45.998 55.789-49.987 78.277-4 22.546-1.057 40.458-.558 43.184l113.004-.639c-1.513-20.137.921-37.011 3.069-51.914 2.438-16.905 4.363-30.256-.43-41.723-5.178-12.343-17.864-21.357-41.141-29.227l.286-.847c23.54 7.958 36.386 17.127 41.68 29.723 4.902 11.687 2.96 25.145.502 42.186-2.161 14.977-4.61 31.95-3.028 52.2l.036.478-114.722.648Z" fill="#1d1d1b" fill-rule="evenodd" data-name="Path 69"/><path d="M127.793 122.351s-37.759 5.15-60.18 22.067c-18.869 14.236-23.607 21.688-34.61 40.97-9.2 16.122-8.723 41.552 13.064 45.707 21.787 4.155 39.918 5.524 41.151-6.533l6.672-1.282-.269-27.302-3.905.068" fill="#07acee" fill-rule="evenodd" data-name="Path 70"/><path d="M69.768 234.497c-7.177-.063-15.672-1.418-23.786-2.965-7.76-1.479-13.482-5.803-16.554-12.502-4.3-9.377-3.017-22.99 3.187-33.867 11.094-19.441 15.893-26.89 34.731-41.108 22.257-16.786 60.008-22.11 60.389-22.154l.118.894c-.378.054-37.903 5.324-59.971 21.983-18.7 14.106-23.465 21.507-34.493 40.833-6.064 10.638-7.335 23.92-3.151 33.047 2.947 6.427 8.449 10.574 15.923 12 14.678 2.813 30.57 4.98 37.291-.031 1.976-1.472 3.065-3.473 3.338-6.112l.034-.33 6.63-1.273-.26-26.48-3.456.061-.014-.894 4.35-.07.284 28.125-6.713 1.286c-.351 2.706-1.579 4.859-3.639 6.407-3.204 2.364-8.265 3.205-14.238 3.15Z" fill="#1d1d1b" fill-rule="evenodd" data-name="Path 71"/><path d="M89.273 196.464s-7.831 10.185-2.477 27.285l6.545-1.035-.314-26.242-3.754-.008Z" fill="#0598c6" fill-rule="evenodd" data-name="Path 72"/><path d="M105.71 142.236a2.628 2.628 0 0 0 2.645-2.603 2.618 2.618 0 0 0-2.59-2.652 2.626 2.626 0 0 0-2.645 2.603 2.618 2.618 0 0 0 2.59 2.652Z" fill="#51cef4" fill-rule="evenodd" data-name="Path 73"/><path d="M71.927 170.292a2.628 2.628 0 0 0 2.645-2.603 2.618 2.618 0 0 0-2.59-2.652 2.626 2.626 0 0 0-2.645 2.603 2.618 2.618 0 0 0 2.59 2.652Z" fill="#51cef4" fill-rule="evenodd" data-name="Path 74"/><path d="M112.502 171.666a2.627 2.627 0 0 0 2.646-2.603 2.618 2.618 0 0 0-2.59-2.652 2.627 2.627 0 0 0-2.645 2.603 2.618 2.618 0 0 0 2.589 2.652Z" fill="#51cef4" fill-rule="evenodd" data-name="Path 75"/><path d="M145.157 159.729a2.628 2.628 0 0 0 2.646-2.604 2.617 2.617 0 0 0-2.59-2.65 2.625 2.625 0 0 0-2.645 2.602 2.618 2.618 0 0 0 2.589 2.652Z" fill="#51cef4" fill-rule="evenodd" data-name="Path 76"/><path d="M46.95 217.15a2.627 2.627 0 0 0 2.646-2.603 2.618 2.618 0 0 0-2.59-2.652 2.626 2.626 0 0 0-2.645 2.603 2.618 2.618 0 0 0 2.59 2.651Z" fill="#51cef4" fill-rule="evenodd" data-name="Path 77"/><path d="M69.042 199.947a2.626 2.626 0 0 0 2.646-2.603 2.619 2.619 0 0 0-2.59-2.652 2.628 2.628 0 0 0-2.646 2.604 2.618 2.618 0 0 0 2.59 2.65Z" fill="#51cef4" fill-rule="evenodd" data-name="Path 78"/><path d="M73.917 226.132a2.628 2.628 0 0 0 2.645-2.604 2.619 2.619 0 0 0-2.59-2.652 2.628 2.628 0 0 0-2.645 2.604 2.62 2.62 0 0 0 2.59 2.652Z" fill="#51cef4" fill-rule="evenodd" data-name="Path 79"/><path d="M174.641 239.714a2.627 2.627 0 0 0 2.646-2.603 2.618 2.618 0 0 0-2.59-2.651 2.628 2.628 0 0 0-2.645 2.603 2.618 2.618 0 0 0 2.59 2.651Z" fill="#51cef4" fill-rule="evenodd" data-name="Path 80"/><path d="m38.127 197.544-.369-.816c.185-.084 18.697-8.45 32.189-9.454 13.673-1.014 20.364 8.514 20.432 8.61l-.738.51c-.062-.093-6.486-9.203-19.63-8.226-13.34.994-31.701 9.292-31.884 9.376Z" fill="#1d1d1b" fill-rule="evenodd" data-name="Path 81"/><path d="M83.501 163.948s-8.68 11.933-9.2 23.836l9.2-23.836Z" fill="#07acee" fill-rule="evenodd" data-name="Path 82"/><path d="m74.741 187.802-.89-.037c.52-11.909 9.2-23.962 9.288-24.08l.72.524c-.082.119-8.595 11.965-9.118 23.593Z" fill="#1d1d1b" fill-rule="evenodd" data-name="Path 83"/><path d="M125.215 123.072s-6.417 8.237 3.425 11.025c7.074 2.006 9.061-2.827 9.061-2.827s3.792 4.808 11.271 1.392c4.863-2.217 1.392-9.04 1.392-9.04-10.417-2.742-14.468-2.886-25.149-.55Z" fill="#fff" fill-rule="evenodd" data-name="Path 84"/><path d="M131.745 135.028a12.26 12.26 0 0 1-3.223-.5c-3.026-.856-4.89-2.313-5.547-4.33-1.127-3.468 1.768-7.24 1.891-7.4l.1-.128.158-.034c10.675-2.338 14.707-2.255 25.354.552l.193.053.094.177c.08.161 1.98 3.952.937 6.941a4.574 4.574 0 0 1-2.542 2.71c-6.262 2.862-10.117.104-11.36-1.059-.66 1.021-2.431 3.051-6.055 3.018Zm-6.266-11.553c-.472.658-2.53 3.757-1.656 6.447.577 1.715 2.224 2.976 4.944 3.747.98.29 1.997.447 3.02.468 4.165.038 5.442-2.89 5.506-3.038l.304-.702.47.601c.147.183 3.682 4.484 10.737 1.262a3.699 3.699 0 0 0 2.068-2.188c.8-2.297-.462-5.31-.808-6.064-10.286-2.696-14.278-2.78-24.585-.533Z" fill="#1d1e1b" fill-rule="evenodd" data-name="Path 85"/><path d="M128.698 106.263s1.208 11.551-2.84 17.158c0 0 12.413 13.028 21.907-.457 0 0-8.807-13.62-7.06-17.542 1.748-3.922-12.007.841-12.007.841Z" fill="#ffcdb2" fill-rule="evenodd" data-name="Path 86"/><path d="M137.53 129.528c-6.453-.055-11.762-5.55-11.995-5.794l-.258-.27.22-.297c3.902-5.4 2.77-16.732 2.757-16.848l-.034-.352.334-.117c1.79-.622 10.813-3.626 12.45-1.833.252.277.476.776.11 1.596-1.354 3.034 4.602 13.384 7.026 17.115l.163.256-.174.245c-2.735 3.884-5.98 5.996-9.651 6.275-.318.017-.634.026-.948.024Zm-11.094-6.158c1.176 1.134 6.308 5.666 11.98 5.236 3.314-.255 6.266-2.155 8.81-5.65-1.447-2.269-8.643-13.866-6.932-17.714.134-.297.149-.511.047-.625-.881-.977-6.953.536-11.171 1.957.176 1.995.771 11.53-2.734 16.796Z" fill="#1d1d1b" fill-rule="evenodd" data-name="Path 87"/><path d="M130.83 76.63c6.88.06 12.52-5.495 12.6-12.406.078-6.91-5.435-12.561-12.315-12.62-6.88-.06-12.52 5.495-12.6 12.405-.079 6.911 5.435 12.562 12.314 12.62Z" fill="#382256" fill-rule="evenodd" data-name="Path 88"/><path d="M130.8 77.077a12.86 12.86 0 0 1-8.62-3.45 12.929 12.929 0 0 1-4.065-8.366 12.985 12.985 0 0 1 6.932-12.603 12.89 12.89 0 0 1 7.365-1.386 12.846 12.846 0 0 1 6.88 2.948 12.885 12.885 0 0 1 4.077 6.288 12.986 12.986 0 0 1-4.34 13.713 12.918 12.918 0 0 1-8.228 2.856Zm.332-25.038a12.054 12.054 0 0 0-7.667 2.676 12.121 12.121 0 0 0-4.031 12.785 12.024 12.024 0 0 0 3.8 5.86 11.86 11.86 0 0 0 8.76 2.758 12.06 12.06 0 0 0 7.983-4.047 12.112 12.112 0 0 0 3.015-8.442 12.042 12.042 0 0 0-3.613-8.183 11.979 11.979 0 0 0-8.25-3.413l.003.006Z" fill="#1d1e1b" fill-rule="evenodd" data-name="Path 89"/><path d="M143.862 68.075c-5.848-8.614-19.66-5.411-22.84-1.091-7.898 10.696-16.93 6.79-17.55 17.55-.309 5.404 4.582 7.015 3.273 16.98-.675 5.14 8.498 12.092 16.172 11.408 7.672-.685 25.3 4.84 34.07-5.345 3.963-4.603 10.178-18.399 2.206-28.54-8.059-10.26-12.794-7.228-15.331-10.962Z" fill="#382256" fill-rule="evenodd" data-name="Path 90"/><path d="M139.186 114.236c-2.994-.025-5.943-.295-8.564-.536-3.059-.279-5.696-.522-7.669-.346-5.372.476-10.972-2.61-13.91-5.68-2.012-2.105-2.986-4.32-2.735-6.23.759-5.768-.594-8.651-1.79-11.184-.83-1.773-1.616-3.446-1.483-5.765.369-6.225 3.467-7.773 7.402-9.734 3.175-1.583 6.776-3.376 10.234-8.058 1.939-2.625 7.086-4.545 12.027-4.502h.173c4.926.088 8.961 2.085 11.365 5.621.877 1.305 2.061 1.706 3.711 2.265 2.76.937 6.54 2.222 11.6 8.658 8.162 10.375 1.896 24.335-2.214 29.11-4.571 5.297-11.503 6.439-18.147 6.381Zm-14.509-1.836c1.733.015 3.768.202 6.027.41 8.284.76 19.627 1.8 25.948-5.54 2.001-2.326 4.471-6.936 5.49-11.987.854-4.298.977-10.562-3.287-15.983-4.9-6.227-8.538-7.463-11.203-8.365-1.736-.59-3.107-1.056-4.16-2.606-2.237-3.3-6.017-5.151-10.643-5.233l-.164-.001c-5.128-.044-9.755 2.057-11.295 4.14-3.585 4.853-7.448 6.793-10.555 8.326-3.818 1.902-6.579 3.28-6.908 8.984-.12 2.086.586 3.583 1.401 5.331 1.249 2.65 2.66 5.653 1.868 11.68-.215 1.636.673 3.585 2.497 5.497 2.791 2.922 8.113 5.86 13.193 5.41a18.37 18.37 0 0 1 1.802-.063h-.011Z" fill="#1d1e1b" fill-rule="evenodd" data-name="Path 91"/><path d="M137.745 89.618c-6.238 1.643-14.852-.73-16.208 1.596-1.356 2.326-.115 5.306 3.33 5.895 3.447.59 6.827.324 13.735-.552 6.908-.876 13.607-2.25 12.65-5.934-.956-3.685-4.33-3.426-13.507-1.005Z" fill="#ffb49f" fill-rule="evenodd" data-name="Path 92"/><path d="M132.524 71.659c-1.6 10.084-11.124 15.488-16.478 16.464-.928 3.116.025 7.12.326 10.655 1.109 12.983 8.964 21.748 21.297 19.791 12.04-1.907 17.808-9.434 16.444-23.722-.321-3.373-.476-6.733-1.808-9.552-10.292.886-19.78-13.636-19.78-13.636Z" fill="#ffcdb2" fill-rule="evenodd" data-name="Path 93"/><path d="M134.17 119.285c-3.896-.035-7.416-1.21-10.285-3.472-4.497-3.529-7.319-9.564-7.955-16.994a68.524 68.524 0 0 0-.31-2.705c-.356-2.799-.725-5.69-.004-8.116l.08-.264.271-.049c5.792-1.055 14.638-6.75 16.118-16.094l.183-1.143.63.965c.09.138 8.878 13.404 18.427 13.487.298.002.628-.01.943-.037l.297-.027.134.278c1.207 2.544 1.465 5.428 1.74 8.482.033.403.07.806.108 1.208.682 7.135-.42 12.788-3.277 16.805-2.792 3.93-7.349 6.421-13.54 7.402-1.178.188-2.369.28-3.56.274ZM116.394 88.51c-.569 2.198-.228 4.883.105 7.485.115.91.234 1.85.31 2.745.614 7.181 3.32 12.995 7.62 16.368 3.534 2.777 8.095 3.821 13.165 3.019 12.122-1.922 17.377-9.521 16.068-23.236l-.11-1.211c-.265-2.86-.498-5.568-1.53-7.905-.243-.002-.49.02-.73.017-8.635-.074-16.338-9.925-18.534-13.002-2.061 9.48-10.895 14.608-16.358 15.72h-.006Z" fill="#1d1d1b" fill-rule="evenodd" data-name="Path 94"/><path d="M136.546 90.5c-7.422 2.024-17.724-.699-19.317 2.094-1.593 2.793-.07 6.33 4.041 6.991 4.112.66 8.148.309 16.377-.818 8.23-1.127 16.207-2.841 15.025-7.227-1.18-4.385-5.225-4.033-16.126-1.04Z" fill="#ffb49f" fill-rule="evenodd" data-name="Path 95"/><path d="M135.24 102.248a.44.44 0 0 1-.436-.409l-.872-10.185a.44.44 0 0 1 .103-.327.449.449 0 0 1 .476-.14.44.44 0 0 1 .26.22c.028.053.044.11.049.169l.87 10.185a.452.452 0 0 1-.405.485l-.045.002Z" fill-rule="evenodd" data-name="Path 96"/><path d="M122.037 61.527a.807.807 0 0 1-.235-.038.743.743 0 0 1-.46-.946c.081-.24 2.104-5.913 9.067-6.998a.738.738 0 0 1 .774.338.74.74 0 0 1 .087.577.738.738 0 0 1-.354.464.743.743 0 0 1-.283.093c-6.051.944-7.815 5.805-7.886 6.01a.752.752 0 0 1-.71.5Z" fill="#fff" fill-rule="evenodd" data-name="Path 97"/><path d="M121.393 90.648a.447.447 0 0 1-.355-.71c.164-.222 4.025-5.398 9.06-4.17a.448.448 0 0 1-.215.87c-4.45-1.087-8.089 3.781-8.124 3.829a.449.449 0 0 1-.366.181Z" fill-rule="evenodd" data-name="Path 98"/><path d="M144.784 86.496a.451.451 0 0 1-.28-.101c-3.947-3.276-7.532-1.262-7.683-1.165a.445.445 0 0 1-.61-.16.45.45 0 0 1 .162-.614c.04-.024 4.261-2.436 8.702 1.248a.445.445 0 0 1 .13.506.448.448 0 0 1-.436.286h.015Z" fill-rule="evenodd" data-name="Path 99"/><path d="M131.75 97.61a.442.442 0 0 1-.332-.152c-2.28-2.626-6.816-.12-6.862-.097a.443.443 0 0 1-.607-.17.447.447 0 0 1 .17-.61c.213-.118 5.216-2.889 7.973.286a.447.447 0 0 1-.046.633.433.433 0 0 1-.295.11Z" fill-rule="evenodd" data-name="Path 100"/><path d="M138.054 96.541a.444.444 0 0 1-.41-.28.453.453 0 0 1 .103-.487c.039-.038 3.856-3.715 8.57-1.637a.448.448 0 0 1-.36.821c-4.146-1.829-7.454 1.319-7.587 1.455a.447.447 0 0 1-.316.128Z" fill-rule="evenodd" data-name="Path 101"/><path d="M173.51 202.06c-5.983-11.934-15.628-31.316-14.069-41.121 1.558-9.805 8.602-10.514 8.602-10.514l-.313-7.52 25.275-6.742 1.311 4.9s16.414-.668 18.37 22.642c1.983 23.651 16.91 55.218-16.706 59.312-10.012 1.221-19.392-14.822-22.47-20.957Z" fill="#07acee" fill-rule="evenodd" data-name="Path 102"/><path d="M194.819 223.528c-10.536-.094-19.882-17.63-21.706-21.265-5.876-11.72-15.703-31.332-14.106-41.394 1.374-8.627 6.994-10.466 8.578-10.815l-.295-7.129a.442.442 0 0 1 .332-.45l25.276-6.745a.449.449 0 0 1 .544.318l1.224 4.57a16.865 16.865 0 0 1 8.346 2.647c4.053 2.56 9.1 8.177 10.124 20.403.411 4.919 1.408 10.296 2.372 15.494 2.446 13.21 4.979 26.857-1.376 35.545-3.546 4.838-9.463 7.702-18.085 8.754-.408.05-.817.072-1.228.067Zm-20.907-21.67c1.846 3.682 11.591 21.986 22.023 20.714 8.367-1.018 14.08-3.764 17.472-8.393 6.126-8.359 3.632-21.826 1.217-34.845-.965-5.22-1.963-10.62-2.384-15.585-.788-9.361-4.128-16.171-9.668-19.695a15.875 15.875 0 0 0-8.24-2.538.448.448 0 0 1-.445-.328l-1.196-4.48-24.501 6.539.296 7.152a.443.443 0 0 1-.401.464c-.274.03-6.72.816-8.202 10.139-1.555 9.781 8.197 29.234 14.029 40.857Z" fill="#1d1d1b" fill-rule="evenodd" data-name="Path 103"/><path d="M168.543 150.848s16.297 3.466 25.303-9.426l-1.16-4.866-24.38 6.753.237 7.54Z" fill="#0598c6" fill-rule="evenodd" data-name="Path 104"/><path d="M194.533 213.748a2.626 2.626 0 0 0 1.757-3.268 2.62 2.62 0 0 0-3.271-1.745 2.624 2.624 0 0 0-1.756 3.268 2.62 2.62 0 0 0 3.27 1.745Z" fill="#51cef4" fill-rule="evenodd" data-name="Path 105"/><path d="M202.621 188.077a2.624 2.624 0 0 0 1.757-3.268 2.62 2.62 0 0 0-3.27-1.745 2.625 2.625 0 0 0-1.758 3.268 2.62 2.62 0 0 0 3.271 1.745Z" fill="#51cef4" fill-rule="evenodd" data-name="Path 106"/><path d="M199.48 161.565a2.625 2.625 0 0 0 1.757-3.268 2.621 2.621 0 0 0-3.272-1.745 2.626 2.626 0 0 0-1.757 3.269 2.62 2.62 0 0 0 3.272 1.744Z" fill="#51cef4" fill-rule="evenodd" data-name="Path 107"/><path d="M174.3 169.342a2.625 2.625 0 0 0 1.757-3.268 2.62 2.62 0 0 0-3.271-1.746 2.619 2.619 0 1 0 1.515 5.014Z" fill="#51cef4" fill-rule="evenodd" data-name="Path 108"/><path d="M137.386 110.33a7.151 7.151 0 0 1-2.89-.624.447.447 0 0 1 .408-.795c.201.1 4.801 2.351 7.828-2.974a.441.441 0 0 1 .27-.231.449.449 0 0 1 .565.32.453.453 0 0 1-.06.35c-1.838 3.227-4.253 3.97-6.121 3.953Z" fill-rule="evenodd" data-name="Path 109"/><path d="M189.573 136.87s-1.859-3.237-1.189-5.111c.669-1.875 5.561-9.053 6.774-14.27 1.178-5.073-2.595-6.843-8.08-.347 0 0 1.741-7.828-3.543-7.182 0 0-.475-3.97-3.893-8.253-2.93-3.675-6.696-.057-4.91 3.743 1.497 3.174 2.095 4.443 2.255 5.768 0 0-5.036.85-1.917 4.488 0 0 .851 3.477-1.778 3.803-2.63.326.42-7.664-1.218-10.143-1.639-2.478-5.931-1.058-7.234 6.715-1.304 7.772-2.444 11.276-.051 16.353 1.787 3.789 3.78 10.645 3.78 10.645l21.004-6.208Z" fill="#ffcdb2" fill-rule="evenodd" data-name="Path 110"/><path d="M168.563 143.526a.452.452 0 0 1-.21-.052.445.445 0 0 1-.214-.267c-.02-.069-2.002-6.872-3.741-10.582-2.132-4.515-1.552-7.761-.504-13.665.165-.916.337-1.893.515-2.951.902-5.387 3.214-7.721 5.082-8.137a2.767 2.767 0 0 1 2.957 1.247c.84 1.277.595 3.617.358 5.877-.174 1.661-.371 3.542.09 3.996.033.034.112.109.341.081a1.53 1.53 0 0 0 1.15-.637c.506-.74.384-1.983.27-2.515-.94-1.135-1.255-2.163-.927-3.06.449-1.232 1.987-1.77 2.75-1.982-.221-1.143-.844-2.462-2.15-5.23-1.12-2.376-.246-4.589 1.162-5.47 1.124-.709 2.9-.75 4.501 1.254 2.844 3.568 3.695 6.886 3.916 8.053 1.156-.055 2.076.29 2.737 1.022 1.215 1.346 1.238 3.694 1.09 5.23 2.574-2.687 4.994-3.798 6.615-2.985 1.326.667 1.79 2.474 1.243 4.836-.837 3.601-3.418 8.16-5.128 11.175a30.998 30.998 0 0 0-1.664 3.144c-.49 1.379.668 3.88 1.158 4.74a.454.454 0 0 1 .029.39.45.45 0 0 1-.3.262l-21.01 6.209a.41.41 0 0 1-.116.017Zm1.554-34.826a1.972 1.972 0 0 0-.452.046c-1.49.324-3.558 2.458-4.387 7.413-.176 1.062-.35 2.044-.516 2.975-1.015 5.72-1.586 8.87.445 13.116 1.546 3.274 3.208 8.711 3.677 10.284l20.054-5.925c-.51-1.023-1.53-3.39-.959-4.99.227-.64.888-1.808 1.728-3.288 1.683-2.965 4.224-7.458 5.033-10.935.441-1.903.147-3.371-.776-3.833-1.057-.534-3.403.165-6.533 3.877a.446.446 0 0 1-.774-.384c0-.042.91-4.206-.658-5.937-.545-.6-1.33-.83-2.394-.7a.442.442 0 0 1-.495-.388c0-.04-.512-3.909-3.801-8.029-1.048-1.314-2.295-1.709-3.33-1.056-1.035.652-1.727 2.42-.828 4.325 1.503 3.19 2.126 4.51 2.295 5.906a.446.446 0 0 1-.371.494c-.578.1-2.152.562-2.492 1.504-.215.595.067 1.351.841 2.258a.448.448 0 0 1 .093.183c.02.08.496 2.053-.38 3.333a2.409 2.409 0 0 1-1.777 1.02 1.237 1.237 0 0 1-1.074-.329c-.767-.754-.564-2.594-.35-4.726.21-2.006.447-4.282-.219-5.292a1.894 1.894 0 0 0-1.6-.922Z" fill="#1d1d1b" fill-rule="evenodd" data-name="Path 111"/><path d="M175.29 115.909s2.03 2.006 8.098.348l-8.098-.348Z" fill="#ffcdb2" fill-rule="evenodd" data-name="Path 112"/><path d="M178.965 117.36c-2.812-.024-3.914-1.065-3.978-1.128a.454.454 0 0 1-.01-.636.447.447 0 0 1 .632-.011c.039.036 2.016 1.779 7.67.24a.442.442 0 0 1 .547.317.453.453 0 0 1-.315.55c-1.48.43-3.008.654-4.546.668Z" fill="#1d1d1b" fill-rule="evenodd" data-name="Path 113"/><path d="M176.966 111.24a52.546 52.546 0 0 1 6.562-1.265l-6.562 1.264Z" fill="#ffcdb2" fill-rule="evenodd" data-name="Path 114"/><path d="M176.962 111.686a.453.453 0 0 1-.332-.092.453.453 0 0 1 .223-.806 53.668 53.668 0 0 1 6.621-1.273.447.447 0 0 1 .5.395.451.451 0 0 1-.395.503c-2.189.28-4.36.697-6.498 1.247a.407.407 0 0 1-.12.026Z" fill="#1d1d1b" fill-rule="evenodd" data-name="Path 115"/><path d="M187.086 117.153c-.774.992-1.2 1.046-3.045 4.408l3.045-4.408Z" fill="#ffcdb2" fill-rule="evenodd" data-name="Path 116"/><path d="M184.036 122.003a.448.448 0 0 1-.21-.056.452.452 0 0 1-.177-.598c1.414-2.591 2.03-3.26 2.579-3.876.168-.188.33-.363.508-.59a.45.45 0 0 1 .61-.062.447.447 0 0 1 .09.61c-.198.254-.378.452-.55.641-.539.592-1.096 1.207-2.455 3.705a.446.446 0 0 1-.395.226Z" fill="#1d1d1b" fill-rule="evenodd" data-name="Path 117"/><path d="M176.47 126.055h-.066a.452.452 0 0 1-.372-.513c.46-2.886-3.651-5.77-3.692-5.801a.447.447 0 0 1 .013-.742.448.448 0 0 1 .335-.062c.057.012.111.037.159.07.189.13 4.613 3.24 4.066 6.674a.44.44 0 0 1-.444.374Z" fill="#1d1d1b" fill-rule="evenodd" data-name="Path 118"/><path d="M180.994 116.738a7.711 7.711 0 0 0-1.244 2.67l1.244-2.67Z" fill="#ffcdb2" fill-rule="evenodd" data-name="Path 119"/><path d="M179.746 119.844a.438.438 0 0 1-.085-.001.448.448 0 0 1-.348-.527 8.104 8.104 0 0 1 1.325-2.838.448.448 0 0 1 .624-.09.446.446 0 0 1 .087.627 7.299 7.299 0 0 0-1.162 2.478.447.447 0 0 1-.44.35Z" fill="#1d1d1b" fill-rule="evenodd" data-name="Path 120"/><path d="M176.854 113.491a.75.75 0 0 1-.109-1.494l7.387-1.219a.744.744 0 0 1 .724 1.173.747.747 0 0 1-.485.302l-7.388 1.218a.838.838 0 0 1-.129.02Z" fill="#fff" fill-rule="evenodd" data-name="Path 121"/><path d="M56.139 157.67a.748.748 0 0 1-.528-1.263c16.899-17.547 41.304-24.95 41.549-25.01a.733.733 0 0 1 .576.049.737.737 0 0 1 .367.448.744.744 0 0 1-.524.931c-.24.072-24.277 7.36-40.896 24.617a.74.74 0 0 1-.544.228Z" fill="#fff" fill-rule="evenodd" data-name="Path 122"/><path d="M210.571 167.675a.74.74 0 0 1-.733-.716c-.36-9.55-3.11-14.854-5.367-17.62-2.412-2.971-4.774-3.726-4.797-3.735a.746.746 0 0 1 .432-1.426c.43.13 10.488 3.373 11.217 22.738a.747.747 0 0 1-.716.774l-.036-.015Z" fill="#fff" fill-rule="evenodd" data-name="Path 123"/><path d="M53.192 194.425a.742.742 0 0 1-.72-.587.75.75 0 0 1 .41-.834c.731-.347 18-8.34 30.696-1.32a.744.744 0 0 1 .29 1.015.743.743 0 0 1-1.013.293c-12.035-6.655-29.167 1.28-29.34 1.361a.722.722 0 0 1-.323.072Z" fill="#fff" fill-rule="evenodd" data-name="Path 124"/><path d="M33.446 231.014a.459.459 0 0 1-.228-.064c-8.423-5.176-10.824-13.5-11.356-19.565a37.87 37.87 0 0 1 .865-12.008.442.442 0 0 1 .2-.294.43.43 0 0 1 .17-.063.435.435 0 0 1 .344.09.44.44 0 0 1 .168.314.447.447 0 0 1-.023.18 37.957 37.957 0 0 0-.836 11.726c.756 8.518 4.436 14.863 10.933 18.862a.433.433 0 0 1 .203.274.448.448 0 0 1-.055.338.445.445 0 0 1-.385.21Z" fill="#1d1d1b" fill-rule="evenodd" data-name="Path 125"/><path d="M193.175 128.45a.443.443 0 0 1-.436-.49.457.457 0 0 1 .086-.227c5.305-7.047 4.557-12.985 4.55-13.045a.457.457 0 0 1 .384-.51.456.456 0 0 1 .45.218c.03.05.05.107.058.166.036.256.823 6.345-4.719 13.71a.437.437 0 0 1-.373.179Z" fill="#1d1d1b" fill-rule="evenodd" data-name="Path 126"/><path d="M212.24 221.979a.444.444 0 0 1-.387-.233.452.452 0 0 1 .182-.594c7.25-3.94 10.663-11.353 10.14-22.027a55.772 55.772 0 0 0-3.012-15.017.44.44 0 0 1-.003-.353.445.445 0 0 1 .834.035 56.504 56.504 0 0 1 3.068 15.29c.535 10.89-3.13 18.796-10.604 22.857a.447.447 0 0 1-.218.042Z" fill="#1d1d1b" fill-rule="evenodd" data-name="Path 127"/><path d="M48.163 246.075a.442.442 0 0 1-.314-.138.467.467 0 0 1 .006-.65.441.441 0 0 1 .317-.131l158.418-.152c.119.001.233.05.315.137.083.087.13.204.127.326a.462.462 0 0 1-.134.323.44.44 0 0 1-.317.132l-158.418.153Z" fill="#1d1d1b" fill-rule="evenodd" data-name="Path 128"/><path d="M145.47 63.386a.446.446 0 0 1-.44-.45c.118-11.103-7.872-13.12-8.213-13.2a.446.446 0 0 1 .025-.884.446.446 0 0 1 .18.016c.09.02 9.026 2.234 8.899 14.082a.445.445 0 0 1-.45.436Z" fill="#1d1d1b" fill-rule="evenodd" data-name="Path 129"/><path d="M175.386 105.927a.724.724 0 0 1-.697-.534.748.748 0 0 1 .065-.565c2.822-5.209 2.91-9.267 2.91-9.308a.753.753 0 0 1 .75-.735.738.738 0 0 1 .733.752c-.002.178-.08 4.442-3.079 10a.747.747 0 0 1-.682.39Z" fill="#fff" fill-rule="evenodd" data-name="Path 130"/><path d="M129.244 237.327a2.627 2.627 0 0 0 2.646-2.603 2.618 2.618 0 0 0-2.59-2.651 2.628 2.628 0 0 0-2.646 2.603 2.618 2.618 0 0 0 2.59 2.651Z" fill="#51cef4" fill-rule="evenodd" data-name="Path 131"/><path d="M161.774 205.71a2.627 2.627 0 0 0 2.645-2.602 2.618 2.618 0 0 0-2.59-2.652 2.627 2.627 0 0 0-2.645 2.603 2.618 2.618 0 0 0 2.59 2.651Z" fill="#51cef4" fill-rule="evenodd" data-name="Path 132"/><path d="m162.404 240.084-66.194-.571a.074.074 0 0 1-.049-.02.075.075 0 0 1-.024-.047c-2.844-18.665-3.13-36.317.598-52.377a.08.08 0 0 1 .028-.042.074.074 0 0 1 .047-.016l66.203.571c.017 0 .031.006.044.016a.074.074 0 0 1 .027.038c4.067 15.1 3.868 32.564-.6 52.39a.082.082 0 0 1-.029.044.076.076 0 0 1-.051.014Z" fill="#4bd657" fill-rule="evenodd" data-name="Path 133"/><path d="m162.399 240.531-66.194-.571a.521.521 0 0 1-.51-.443c-3.09-20.287-2.893-37.473.601-52.55a.522.522 0 0 1 .513-.404l66.203.572a.523.523 0 0 1 .498.383c4.064 15.1 3.865 32.799-.601 52.602a.53.53 0 0 1-.51.41Zm-65.869-1.463 65.58.565c4.342-19.426 4.547-36.786.612-51.591l-65.623-.566c-3.386 14.799-3.573 31.687-.569 51.592Z" fill="#1d1e1b" fill-rule="evenodd" data-name="Path 134"/><path d="m96.88 187.058 8.341-8.196a.087.087 0 0 1 .054-.02l49.519.432c.02.001.038.009.053.022l8.154 8.34c.01.011.016.025.02.04a.083.083 0 0 1-.033.079.079.079 0 0 1-.043.013l-66.012-.577a.072.072 0 0 1-.042-.014.075.075 0 0 1-.027-.034.079.079 0 0 1 .017-.084Z" fill="#4bd657" fill-rule="evenodd" data-name="Path 135"/><path d="m162.928 188.215-66.012-.576a.517.517 0 0 1-.478-.33.534.534 0 0 1 .12-.574l8.34-8.19a.526.526 0 0 1 .37-.15l49.518.432a.513.513 0 0 1 .367.156l8.153 8.334a.525.525 0 0 1 .107.576.53.53 0 0 1-.485.322Zm-65.103-1.469 64.214.56-7.415-7.574-49.214-.43-7.585 7.444Z" fill="#1d1e1b" fill-rule="evenodd" data-name="Path 136"/><path d="M136.029 202.53a6.132 6.132 0 0 0-4.35 1.759 6.156 6.156 0 0 0-1.842 4.323l-.002.206a6.127 6.127 0 0 0-1.785-4.277 6.099 6.099 0 0 0-4.266-1.794c-3.385-.031-6.436 2.702-6.194 6.081.45 6.24 7.996 11.914 10.931 13.898a1.941 1.941 0 0 0 2.26-.063c3.033-2.283 11.254-8.933 11.31-13.941a6.138 6.138 0 0 0-1.749-4.357 6.1 6.1 0 0 0-4.313-1.834Z" fill="#fff" fill-rule="evenodd" data-name="Path 137"/><path d="M129.586 223.504a2.37 2.37 0 0 1-1.31-.407c-3.194-2.157-10.668-7.845-11.126-14.237a5.815 5.815 0 0 1 1.613-4.415 6.841 6.841 0 0 1 5.03-2.146 6.541 6.541 0 0 0 6.188 4.112 6.561 6.561 0 0 0 3.7-1.222 6.592 6.592 0 0 0 2.362-3.106 6.555 6.555 0 0 1 4.621 1.973 6.58 6.58 0 0 1 1.875 4.67c-.057 5.135-8.05 11.707-11.484 14.294-.424.32-.94.49-1.469.484Zm-5.804-20.32a6.005 6.005 0 0 0-4.368 1.863 4.912 4.912 0 0 0-1.374 3.737c.43 5.99 7.65 11.479 10.735 13.562a1.508 1.508 0 0 0 1.743-.05c2.598-1.955 11.075-8.717 11.13-13.586a5.688 5.688 0 0 0-1.62-4.04 5.659 5.659 0 0 0-3.995-1.7 5.684 5.684 0 0 0-4.033 1.629 5.713 5.713 0 0 0-1.708 4.009c0 .056 0 .113-.002.173v.047l-.892-.008a5.71 5.71 0 0 0-1.666-3.958 5.687 5.687 0 0 0-3.95-1.67v-.008Z" fill="#1d1e1b" fill-rule="evenodd" data-name="Path 138"/><path d="m142.342 184.345-23.552-.22a.441.441 0 0 1-.314-.137.455.455 0 0 1 .324-.77l23.551.22c.119.001.232.051.315.136a.457.457 0 0 1-.007.641.446.446 0 0 1-.317.13Z" fill="#1d1e1b" fill-rule="evenodd" data-name="Path 139"/><path d="M141.043 183.888c.039-.048.082-.096.117-.145.476-.651.82-1.39 1.011-2.174a6.14 6.14 0 0 0-2.325-6.407 6.122 6.122 0 0 0-4.555-1.108 6.127 6.127 0 0 0-2.246.824c-.689.42-1.288.97-1.763 1.62l-.127.164a6.15 6.15 0 0 0 1.033-4.529 6.118 6.118 0 0 0-2.427-3.95c-2.726-1.999-6.794-1.551-8.56 1.343-2.424 3.975-1.48 9.988-.33 14.174l20.172.188Z" fill="#fff" fill-rule="evenodd" data-name="Path 140"/><path d="m141.247 184.336-20.716-.185-.089-.323c-1.201-4.375-2.112-10.453.381-14.53a5.78 5.78 0 0 1 3.875-2.648 6.795 6.795 0 0 1 5.34 1.184 3.898 3.898 0 0 0 .882 6.45 3.878 3.878 0 0 0 4.303-.663 6.56 6.56 0 0 1 7.564 6.78 6.616 6.616 0 0 1-1.264 3.61c-.026.038-.06.077-.09.115l-.186.21Zm-20.034-1.074 19.608.176a5.706 5.706 0 0 0 .993-4.228 5.677 5.677 0 0 0-2.27-3.692 5.657 5.657 0 0 0-4.21-1.009 5.687 5.687 0 0 0-3.7 2.262l-.107.136-.03.038-.714-.534a5.731 5.731 0 0 0 .95-4.195 5.703 5.703 0 0 0-2.234-3.666 5.996 5.996 0 0 0-4.63-1.028 4.896 4.896 0 0 0-3.296 2.242c-2.245 3.698-1.46 9.324-.351 13.5l-.01-.002Z" fill="#1d1e1b" fill-rule="evenodd" data-name="Path 141"/><path d="M159.572 235.796a.734.734 0 0 1-.7-.962c5.847-19.211 1.133-42.624 1.082-42.862a.742.742 0 0 1 .575-.882.741.741 0 0 1 .875.577c.047.238 4.842 24.011-1.118 43.598a.75.75 0 0 1-.714.531Z" fill="#fff" fill-rule="evenodd" data-name="Path 142"/><path d="M94.948 196.327s-8.373-1.427-11.524 7.014-3.442 17.247 1.223 22.391c4.665 5.145 10.098 5.36 13.63 3.61 3.531-1.749 4.074-5.653 1.021-9.61 0 0 5.446-4.183-.335-10.824 0 0 5.681-9.36-4.105-9.058l.09-3.523Z" fill="#ffcdb2" fill-rule="evenodd" data-name="Path 143"/><path d="M81.122 216.327c-.222-4.042.645-8.563 2.295-12.986 3.152-8.442 11.525-7.014 11.525-7.014l-.104 3.523c4.322-.134 5.628 1.62 5.737 3.626.138 2.525-1.632 5.44-1.632 5.44 1.869 2.146 2.564 4.035 2.65 5.61.181 3.299-2.316 5.215-2.316 5.215 1.254 1.627 1.899 3.244 1.981 4.705.114 2.085-.934 3.863-3.002 4.905-3.517 1.756-8.932 1.545-13.63-3.61-2.22-2.454-3.318-5.73-3.519-9.406l.015-.008Zm-.71.05c.222 4.058 1.466 7.364 3.7 9.83 2.235 2.467 4.865 4.06 7.614 4.611 2.302.483 4.7.19 6.823-.832 2.283-1.135 3.518-3.166 3.387-5.567-.082-1.49-.68-3.051-1.733-4.577a7.093 7.093 0 0 0 2.08-5.343c-.101-1.855-.942-3.753-2.499-5.653.507-.951 1.6-3.263 1.483-5.396-.106-1.938-1.204-4.196-5.717-4.282l.084-2.8a.691.691 0 0 0-.587-.704 12.165 12.165 0 0 0-4.883.356c-2.427.68-5.674 2.463-7.41 7.1-1.748 4.685-2.557 9.272-2.34 13.269l-.002-.012Z" fill-rule="evenodd" data-name="Path 144"/><path d="M94.777 221.062a13.287 13.287 0 0 1-8.597-3.306.449.449 0 0 1 .495-.725.443.443 0 0 1 .143.099c.218.211 5.37 5.185 13.138 2.005a.447.447 0 0 1 .58.589.45.45 0 0 1-.244.24 14.085 14.085 0 0 1-5.515 1.098Z" fill="#1d1d1b" fill-rule="evenodd" data-name="Path 145"/><path d="M94.38 210.466a26.465 26.465 0 0 1-6.363-.905.45.45 0 0 1 .07-.881c.06-.006.12 0 .177.019.068.018 6.933 1.945 11.136-.023a.449.449 0 0 1 .593.219.446.446 0 0 1-.077.492.442.442 0 0 1-.14.103c-1.622.76-3.563.993-5.396.976Z" fill="#1d1d1b" fill-rule="evenodd" data-name="Path 146"/><path d="M88.93 200.487a.442.442 0 0 1-.414-.603.448.448 0 0 1 .176-.22c2.635-1.713 6.853-.575 7.043-.532a.457.457 0 0 1 .27.21.46.46 0 0 1 .04.341.453.453 0 0 1-.375.326.46.46 0 0 1-.174-.014c-.038 0-4.021-1.078-6.32.413a.424.424 0 0 1-.245.079Z" fill="#1d1d1b" fill-rule="evenodd" data-name="Path 147"/><path d="M98.916 203.25a.743.743 0 0 1-.297-.066c-4.796-2.161-9.374-.42-9.419-.403a.744.744 0 0 1-.94-.994.745.745 0 0 1 .401-.397c.21-.082 5.213-1.982 10.571.432a.748.748 0 0 1-.312 1.428h-.004Z" fill="#fff" fill-rule="evenodd" data-name="Path 148"/><path d="M93.903 212.89a14.777 14.777 0 0 1-6.045-1.438.735.735 0 0 1-.372-.435.75.75 0 0 1 .773-.975.751.751 0 0 1 .28.082c.065.033 5.484 2.737 9.929.12a.732.732 0 0 1 .564-.079.743.743 0 0 1 .404 1.172.745.745 0 0 1-.217.194 10.163 10.163 0 0 1-5.316 1.36Z" fill="#fff" fill-rule="evenodd" data-name="Path 149"/><path d="M180.4 93.32a6.112 6.112 0 0 0-7.93-3.473 6.154 6.154 0 0 0-3.483 7.955c.027.06.047.129.07.195a6.104 6.104 0 0 0-7.88-3.35c-3.15 1.24-4.967 4.913-3.482 7.954 1.722 3.53 5.965 5.8 9.735 7.186 1.702-1.976 3.704-1.925 4.71-.402.327.587.498 1.248.496 1.92l.383.085a1.955 1.955 0 0 0 2.076-.905c1.966-3.267 7.12-12.505 5.306-17.164Z" fill="#fff" fill-rule="evenodd" data-name="Path 150"/><path d="M173.403 111.865a2.457 2.457 0 0 1-.476-.052l-.385-.085a.447.447 0 0 1-.35-.411 3.537 3.537 0 0 0-.42-1.7 1.892 1.892 0 0 0-1.477-.907c-.826-.052-1.72.429-2.52 1.357a.45.45 0 0 1-.492.127c-5.148-1.888-8.507-4.38-9.985-7.409a5.78 5.78 0 0 1-.147-4.692 6.827 6.827 0 0 1 3.867-3.873 3.894 3.894 0 0 0 1.572 2.525 3.878 3.878 0 0 0 5.418-.912 3.902 3.902 0 0 0 .674-2.903 6.605 6.605 0 0 1 2.48-2.91 6.571 6.571 0 0 1 3.674-1.04 6.548 6.548 0 0 1 5.983 4.18c1.859 4.786-3.113 13.86-5.336 17.537a2.41 2.41 0 0 1-2.08 1.168Zm-.344-.94h.057a1.508 1.508 0 0 0 1.602-.697c1.681-2.787 7.031-12.225 5.267-16.756a5.666 5.666 0 0 0-7.351-3.219 5.702 5.702 0 0 0-3.228 7.374l.06.17v.04a.448.448 0 0 1-.597.56.444.444 0 0 1-.236-.24 5.689 5.689 0 0 0-7.305-3.12 6.018 6.018 0 0 0-3.363 3.361 4.908 4.908 0 0 0 .12 3.98c1.664 3.407 5.868 5.596 9.212 6.857.936-.99 2.012-1.496 3.04-1.434a2.781 2.781 0 0 1 2.165 1.31c.331.55.522 1.173.557 1.815Z" fill-rule="evenodd" data-name="Path 151"/><path d="M182.527 92.808a.436.436 0 0 1-.407-.278c-1.177-2.927-2.842-4.708-4.947-5.297-3.56-.992-7.291 1.764-7.33 1.793a.448.448 0 0 1-.607-.102.448.448 0 0 1 .072-.613c.166-.126 4.108-3.05 8.101-1.94 2.388.663 4.252 2.624 5.54 5.823a.47.47 0 0 1 .035.175.466.466 0 0 1-.134.322.46.46 0 0 1-.15.097.441.441 0 0 1-.173.02Z" fill="#1d1d1b" fill-rule="evenodd" data-name="Path 152"/><path d="M219.414 40.195a11.028 11.028 0 0 0-8.415-.994c-1.4.397-2.71 1.067-3.854 1.97a11.145 11.145 0 0 0-2.813 3.298c-.058.1-.124.21-.192.317a11.135 11.135 0 0 0 .887-8.352 11.046 11.046 0 0 0-5.2-6.568c-5.316-2.992-12.533-1.3-15.079 4.273-4.702 10.308 2.323 25.895 5.252 31.6a3.507 3.507 0 0 0 3.635 1.87c6.78-.99 25.567-4.4 29.997-12.304a11.138 11.138 0 0 0 1.013-8.44 11.054 11.054 0 0 0-5.23-6.67Z" fill="#fff" fill-rule="evenodd" data-name="Path 153"/><path d="M193.089 68.094a3.96 3.96 0 0 1-3.487-2.15c-3.159-6.157-10-21.6-5.259-31.99a10.156 10.156 0 0 1 2.513-3.361 10.116 10.116 0 0 1 3.655-2.054 11.909 11.909 0 0 1 9.536.938 11.556 11.556 0 0 0 .825 7.298 11.467 11.467 0 0 0 12.28 6.475 11.538 11.538 0 0 0 6.48-3.446 11.512 11.512 0 0 1 5.439 6.94 11.605 11.605 0 0 1-1.052 8.78c-4.464 7.965-22.692 11.43-30.32 12.528-.203.03-.407.044-.61.042Zm1.182-39.236a10.913 10.913 0 0 0-3.484.53 9.256 9.256 0 0 0-5.633 4.936c-4.575 10.035 2.14 25.17 5.243 31.21a3.072 3.072 0 0 0 3.174 1.634c5.851-.844 25.283-4.254 29.672-12.08a10.724 10.724 0 0 0 1.35-3.976 10.672 10.672 0 0 0-2.153-7.932 10.582 10.582 0 0 0-11.32-3.66 10.662 10.662 0 0 0-6.399 5.166c-.048.084-.1.173-.155.259l-.045.074-.774-.442a10.746 10.746 0 0 0 .831-8.01 10.659 10.659 0 0 0-4.968-6.31 11.163 11.163 0 0 0-5.34-1.399Z" fill="#1d1e1b" fill-rule="evenodd" data-name="Path 154"/><path d="M196.795 38.008a.439.439 0 0 1-.393-.242c-10.77-21.232-30.736-26.802-30.932-26.846a.446.446 0 0 1-.107-.82.443.443 0 0 1 .34-.045c.21.059 5.197 1.42 11.61 5.469a55.655 55.655 0 0 1 19.89 21.832.445.445 0 0 1-.196.594.428.428 0 0 1-.212.058Z" fill-rule="evenodd" data-name="Path 155"/><path d="M190.736 38.82a.447.447 0 0 1-.373-.206c-8.36-13.107-18.79-12.846-18.897-12.84a.45.45 0 0 1-.321-.118.442.442 0 0 1-.117-.483.444.444 0 0 1 .4-.294c.447-.017 11.03-.316 19.683 13.253a.444.444 0 0 1 .015.456.444.444 0 0 1-.393.232h.003Z" fill-rule="evenodd" data-name="Path 156"/><path d="M216.757 58.438a.746.746 0 0 1-.589-1.188.745.745 0 0 1 .216-.194c3.093-1.867 4.774-4.023 4.999-6.412.38-4.036-3.506-7.546-3.544-7.582a.732.732 0 0 1-.248-.513.728.728 0 0 1 .186-.54.74.74 0 0 1 1.048-.064c.183.162 4.48 4.037 4.036 8.825-.267 2.892-2.19 5.434-5.725 7.561a.737.737 0 0 1-.379.107Z" fill="#fff" fill-rule="evenodd" data-name="Path 157"/><path d="M54.682 30.767a5.374 5.374 0 0 0-2.644 3.153 5.385 5.385 0 0 0 .355 4.098c.026.05.052.108.078.165a5.333 5.333 0 0 0-7.175-2.188c-2.628 1.376-3.865 4.737-2.288 7.255 2.92 4.628 11.077 5.888 14.162 6.206a1.708 1.708 0 0 0 1.724-.983c1.405-3.017 5.028-11.548 3.015-15.432a5.342 5.342 0 0 0-3.138-2.644 5.334 5.334 0 0 0-4.09.37Z" fill="#fff" fill-rule="evenodd" data-name="Path 158"/><path d="M57.31 49.91h-.198c-3.362-.346-11.504-1.66-14.494-6.413a5.121 5.121 0 0 1-.571-4.116 6.064 6.064 0 0 1 3.016-3.772 5.774 5.774 0 0 0 3.132 1.245 5.796 5.796 0 0 0 3.298-.715 5.833 5.833 0 0 0 2.955-5.762 5.795 5.795 0 0 1 7.829 2.452c2.077 4.007-1.41 12.402-3.008 15.829a2.165 2.165 0 0 1-1.958 1.253Zm-9.524-14.072a4.82 4.82 0 0 0-2.295.555 5.21 5.21 0 0 0-2.584 3.21 4.257 4.257 0 0 0 .466 3.408c2.78 4.422 10.599 5.667 13.832 5.999a1.256 1.256 0 0 0 1.272-.726c1.2-2.58 4.972-11.286 3.023-15.038a4.9 4.9 0 0 0-6.624-2.084 4.95 4.95 0 0 0-2.1 6.65c.023.043.043.087.067.135l.02.04-.795.41a4.926 4.926 0 0 0-4.282-2.56Z" fill="#1d1e1b" fill-rule="evenodd" data-name="Path 159"/><path d="M57.368 34.135a.448.448 0 0 1-.407-.623c.083-.193 2.076-4.8 6.848-9.65 4.407-4.477 12.101-9.966 23.74-10.709a.447.447 0 0 1 .225.85.446.446 0 0 1-.169.045c-11.341.722-18.84 6.06-23.133 10.413-4.667 4.729-6.67 9.356-6.69 9.4a.443.443 0 0 1-.414.274Z" fill-rule="evenodd" data-name="Path 160"/><path d="M55.227 22.176a.456.456 0 0 1-.36-.19.445.445 0 0 1-.01-.496c.07-.11 7.103-11.099 18.442-15.203a.445.445 0 0 1 .52.613.448.448 0 0 1-.232.23c-11.049 3.996-17.925 14.743-17.992 14.838a.454.454 0 0 1-.368.208Z" fill-rule="evenodd" data-name="Path 161"/><path d="M57.88 47.004a.734.734 0 0 1-.626-.358.744.744 0 0 1-.023-.723c3.126-6.11 2.623-10.471 2.617-10.516a.748.748 0 0 1 .642-.823.738.738 0 0 1 .83.628c.027.193.584 4.83-2.77 11.387a.743.743 0 0 1-.67.405Z" fill="#fff" fill-rule="evenodd" data-name="Path 162"/></g><defs><clipPath id="a"><path d="M0 0h245.786v245.786H0V0z" data-name="Rectangle 10"/></clipPath></defs></svg>